<svg width="500" height="200" viewBox="0 0 500 200" xmlns="http://www.w3.org/2000/svg" style="background:#111827; font-family:sans-serif; border-radius:8px; border:1px solid #374151;">
<text x="15" y="20" fill="#9CA3AF" font-size="12" font-weight="bold">Telemetry Mapping Latency Trend</text>
<line x1="50" y1="20" x2="50" y2="170" stroke="#374151" stroke-width="1"/>
<line x1="50" y1="170" x2="480" y2="170" stroke="#374151" stroke-width="1"/>
<line x1="46" y1="170.0" x2="50" y2="170.0" stroke="#374151" stroke-width="1"/>
<text x="42" y="174.0" fill="#6B7280" font-size="9" text-anchor="end">3.6</text>
<line x1="46" y1="95.0" x2="50" y2="95.0" stroke="#374151" stroke-width="1"/>
<text x="42" y="99.0" fill="#6B7280" font-size="9" text-anchor="end">6.8</text>
<line x1="46" y1="20.0" x2="50" y2="20.0" stroke="#374151" stroke-width="1"/>
<text x="42" y="24.0" fill="#6B7280" font-size="9" text-anchor="end">10.0</text>
<polyline fill="none" stroke="#EC4899" stroke-width="2.5" points="50.0,142.35614854625274 121.66666666666666,160.54165950599153 193.33333333333331,150.4177668067555 265.0,134.90383864264845 336.66666666666663,41.3750058587342 408.33333333333337,49.99906260252787 480.0,108.23488055993877"/>
<circle cx="50.0" cy="142.35614854625274" r="4" fill="#111827" stroke="#EC4899" stroke-width="2"/>
<text x="50.0" y="134.35614854625274" fill="#F9FAFB" font-size="8" font-weight="bold" text-anchor="middle">4.8us</text>
<text x="50.0" y="185" fill="#6B7280" font-size="8" text-anchor="middle" transform="rotate(-15, 50.0, 185)">2026-06-27</text>
<circle cx="121.66666666666666" cy="160.54165950599153" r="4" fill="#111827" stroke="#EC4899" stroke-width="2"/>
<text x="121.66666666666666" y="152.54165950599153" fill="#F9FAFB" font-size="8" font-weight="bold" text-anchor="middle">4.0us</text>
<text x="121.66666666666666" y="185" fill="#6B7280" font-size="8" text-anchor="middle" transform="rotate(-15, 121.66666666666666, 185)">2026-06-27</text>
<circle cx="193.33333333333331" cy="150.4177668067555" r="4" fill="#111827" stroke="#EC4899" stroke-width="2"/>
<text x="193.33333333333331" y="142.4177668067555" fill="#F9FAFB" font-size="8" font-weight="bold" text-anchor="middle">4.5us</text>
<text x="193.33333333333331" y="185" fill="#6B7280" font-size="8" text-anchor="middle" transform="rotate(-15, 193.33333333333331, 185)">2026-06-27</text>
<circle cx="265.0" cy="134.90383864264845" r="4" fill="#111827" stroke="#EC4899" stroke-width="2"/>
<text x="265.0" y="126.90383864264845" fill="#F9FAFB" font-size="8" font-weight="bold" text-anchor="middle">5.1us</text>
<text x="265.0" y="185" fill="#6B7280" font-size="8" text-anchor="middle" transform="rotate(-15, 265.0, 185)">2026-06-27</text>
<circle cx="336.66666666666663" cy="41.3750058587342" r="4" fill="#111827" stroke="#EC4899" stroke-width="2"/>
<text x="336.66666666666663" y="33.3750058587342" fill="#F9FAFB" font-size="8" font-weight="bold" text-anchor="middle">9.1us</text>
<text x="336.66666666666663" y="185" fill="#6B7280" font-size="8" text-anchor="middle" transform="rotate(-15, 336.66666666666663, 185)">2026-06-27</text>
<circle cx="408.33333333333337" cy="49.99906260252787" r="4" fill="#111827" stroke="#EC4899" stroke-width="2"/>
<text x="408.33333333333337" y="41.99906260252787" fill="#F9FAFB" font-size="8" font-weight="bold" text-anchor="middle">8.8us</text>
<text x="408.33333333333337" y="185" fill="#6B7280" font-size="8" text-anchor="middle" transform="rotate(-15, 408.33333333333337, 185)">2026-06-27</text>
<circle cx="480.0" cy="108.23488055993877" r="4" fill="#111827" stroke="#EC4899" stroke-width="2"/>
<text x="480.0" y="100.23488055993877" fill="#F9FAFB" font-size="8" font-weight="bold" text-anchor="middle">6.3us</text>
<text x="480.0" y="185" fill="#6B7280" font-size="8" text-anchor="middle" transform="rotate(-15, 480.0, 185)">2026-06-27</text>
</svg>